PathFileType	4	(X/Y/Z)	 s11c0101.trc
DataRate	CameraRate	NumFrames	NumMarkers	Units	OrigDataRate	OrigDataStartFrame	OrigNumFrames
200	200	4	48	mm	200	501	2000
Frame#	Time	racr			lacr			c7			jug			rlel			rdr			llel			ldr			s2			lic			ric			lasi			rasi			rpsi			lpsi			rgt			lgt			rth1			rth2			rth3			rth4			rlfc			rmfc			rsh1			rsh2			rsh3			rsh4			rlmal			rcal			rtoe			rmt5			lth1			lth2			lth4			lth3			llfc			lmfc			llmal			lcal			lmt5			lsh1			lsh2			lsh3			lsh4			ltoe			SBIKE			LBIKE			RBIKE			
		X1	Y1	Z1	X2	Y2	Z2	X3	Y3	Z3	X4	Y4	Z4	X5	Y5	Z5	X6	Y6	Z6	X7	Y7	Z7	X8	Y8	Z8	X9	Y9	Z9	X10	Y10	Z10	X11	Y11	Z11	X12	Y12	Z12	X13	Y13	Z13	X14	Y14	Z14	X15	Y15	Z15	X16	Y16	Z16	X17	Y17	Z17	X18	Y18	Z18	X19	Y19	Z19	X20	Y20	Z20	X21	Y21	Z21	X22	Y22	Z22	X23	Y23	Z23	X24	Y24	Z24	X25	Y25	Z25	X26	Y26	Z26	X27	Y27	Z27	X28	Y28	Z28	X29	Y29	Z29	X30	Y30	Z30	X31	Y31	Z31	X32	Y32	Z32	X33	Y33	Z33	X34	Y34	Z34	X35	Y35	Z35	X36	Y36	Z36	X37	Y37	Z37	X38	Y38	Z38	X39	Y39	Z39	X40	Y40	Z40	X41	Y41	Z41	X42	Y42	Z42	X43	Y43	Z43	X44	Y44	Z44	X45	Y45	Z45	X46	Y46	Z46	X47	Y47	Z47	X48	Y48	Z48	
501	2.5050	483.006612	1414.884439	-81.964911	489.623099	1448.401598	-409.749848	393.839759	1541.047927	-246.206817	454.766000	1371.687290	-252.633084	595.052676	1164.556982	-10.031866	788.881404	933.976159	-38.625007	566.480097	1150.494295	-488.356319	800.069829	929.542832	-430.783368	-114.754605	1210.406784	-246.160341	113.536852	1227.160458	-448.239621	110.395509	1215.220146	-54.330153	140.259380	1152.456360	-408.603660	139.155524	1150.636871	-84.675441	-69.565004	1281.222223	-192.083194	-73.665436	1275.503777	-291.215889	44.475169	1065.028083	-30.362331	31.180976	1105.822668	-459.942148	150.543076	968.579572	-20.417914	233.047151	934.671661	-26.261751	284.958248	864.670323	-35.685876	254.787110	962.567910	-36.823547	360.894491	787.944465	-49.202122	367.128297	771.385418	-177.979272	258.863430	664.052369	-47.010541	216.284716	590.847543	-72.140457	142.403519	545.585350	-78.614286	236.793508	578.644509	-103.745711	40.242290	464.569462	-97.939188	-23.452700	483.908208	-149.647475	198.857600	303.487145	-138.507208	123.868346	317.441344	-71.355850	158.791725	1023.138395	-468.311694	239.198370	995.092835	-461.742879	260.382879	1023.920501	-451.125677	297.297848	926.209502	-458.485626	408.044470	832.129309	-427.876900	416.285058	827.836032	-300.823839	297.785121	412.363499	-408.614842	241.086524	368.485261	-377.575046	444.676557	316.376709	-438.751037	374.601036	710.629257	-449.391670	379.675660	625.147928	-436.641382	341.591961	545.556348	-432.668560	410.055840	621.932463	-413.363127	537.404282	340.165369	-366.758482	-205.391772	961.123955	-261.838568	1.431950	82.591026	-461.032953	-15.304370	81.009590	-62.472317	
502	2.5100	483.227782	1414.729001	-82.040988	489.880614	1448.330036	-410.095795	394.256246	1540.719072	-246.322135	454.909636	1371.196877	-252.781851	594.132556	1164.175644	-9.046162	788.480369	934.010956	-38.772912	563.551700	1149.043402	-489.859973	800.145419	930.528421	-432.101459	-114.669896	1210.477371	-246.322186	113.622830	1227.508448	-448.447311	110.312187	1215.615191	-54.445214	140.356282	1152.653841	-409.012691	139.029465	1150.908459	-84.764730	-69.669127	1281.412781	-192.226815	-73.633572	1275.648653	-291.345700	44.772911	1065.799718	-30.435786	31.421285	1105.711236	-459.723273	151.597169	970.099102	-20.419275	234.276408	936.787863	-26.300446	286.671252	867.052963	-35.458132	255.865644	964.877540	-37.009393	362.946395	790.649980	-48.966662	368.632852	773.778033	-177.838674	260.289888	666.872538	-46.874410	217.378640	593.790288	-72.046187	143.241317	548.928574	-78.831205	237.890748	581.518732	-103.595833	40.751625	468.529743	-97.908484	-22.992050	487.836566	-149.619071	199.167516	307.050736	-138.556184	124.144958	321.412628	-71.379729	158.567252	1022.403496	-468.207650	238.813400	993.798361	-461.507772	260.209734	1022.510990	-450.966916	296.455599	924.650097	-458.184216	406.909787	830.044372	-427.526133	414.980070	825.735746	-300.216816	298.361648	409.196415	-408.854989	241.374670	365.770338	-378.071064	444.836308	312.327274	-438.703945	374.359678	708.272847	-449.451245	379.707425	622.788780	-436.530468	342.006742	543.008299	-432.761283	409.986156	619.684067	-413.099262	537.498392	335.623577	-366.587938	-205.379322	961.118085	-261.835081	1.433791	82.584923	-461.026241	-15.301755	81.006672	-62.481792	
503	2.5150	483.516267	1414.587241	-82.067008	490.117365	1448.170854	-410.362400	394.663077	1540.332911	-246.330248	455.018199	1370.730209	-252.909554	593.148463	1163.675118	-8.026918	788.097657	934.068145	-38.523649	560.527706	1147.507029	-491.307609	799.517364	930.874642	-432.727664	-114.534443	1210.643497	-246.502199	113.640474	1227.665670	-448.415295	110.196016	1216.019262	-54.605216	140.355370	1152.492517	-409.110483	138.835827	1151.208513	-84.830270	-69.781219	1281.599600	-192.366734	-73.578977	1275.809620	-291.480370	45.191417	1066.532074	-30.544348	31.591734	1105.528074	-459.493766	152.706294	971.911437	-20.671893	235.678928	939.267046	-26.142914	288.550738	869.632480	-35.234114	256.939151	967.324292	-37.667259	365.445762	793.574126	-48.671306	370.514290	776.302437	-177.589974	261.904730	670.051879	-46.725955	218.600994	597.208691	-71.979967	144.114184	552.650542	-78.986601	239.066342	584.727967	-103.547664	40.979910	472.769900	-98.029591	-22.533281	492.289651	-149.624577	199.652980	311.613957	-138.523462	124.610297	325.800341	-71.384524	158.310226	1021.432344	-468.056205	238.364823	992.319873	-461.337154	259.894274	1020.879217	-450.785961	295.461623	922.755236	-457.830262	405.538766	827.619088	-427.172816	413.416812	823.221950	-299.677853	298.902249	405.720672	-409.515166	241.566732	362.541498	-378.602461	444.842512	307.739251	-438.690966	373.854287	705.431878	-449.238179	379.556749	620.066598	-436.424017	342.287018	540.076787	-432.843132	409.734178	617.096708	-412.838389	537.652084	330.645125	-366.591549	-205.377427	961.129451	-261.795842	1.504912	82.479187	-461.133979	-15.316877	81.003665	-62.485810	
504	2.5200	484.219293	1414.722831	-81.581195	490.352169	1447.850559	-410.618325	395.063183	1539.889898	-246.284360	455.128000	1370.198773	-253.061695	592.152913	1163.237738	-6.875411	786.623522	933.988635	-38.925559	557.507053	1145.763726	-492.341613	798.897533	931.165444	-433.257678	-115.154958	1210.991092	-246.113682	113.730089	1227.783826	-448.451421	110.062866	1216.338949	-54.745624	140.395697	1152.365453	-409.379667	138.647335	1151.482802	-84.926765	-69.931845	1281.893482	-192.512905	-73.453160	1275.941897	-291.576679	45.643807	1067.387528	-30.548816	31.760565	1105.278846	-459.302834	153.854689	973.766507	-20.710714	237.142475	941.696566	-26.177044	290.173014	872.525712	-35.092299	258.144195	969.917872	-37.742572	367.885073	796.736674	-48.438784	372.739580	779.289518	-177.285175	263.725992	673.516101	-46.564758	219.909964	601.069947	-71.953289	145.210545	556.823430	-79.010804	240.326682	588.526286	-103.502973	41.471878	477.633673	-98.055312	-22.057629	497.130793	-149.589207	200.233376	316.598668	-138.499733	125.230361	330.732187	-71.344057	157.999410	1020.400220	-467.997917	237.770408	990.494288	-461.102586	259.561775	1019.017983	-450.700568	294.301778	920.531372	-457.514180	403.971137	824.826079	-426.701360	412.083986	820.922166	-298.794229	299.340148	401.595975	-410.094058	241.620400	358.901514	-379.078696	444.626964	302.662742	-438.750825	372.964924	702.304861	-449.112564	379.159005	616.877382	-436.291178	342.268026	536.725216	-432.966997	409.244652	614.171180	-412.728890	537.415924	325.332705	-366.783879	-205.374004	961.133208	-261.788522	1.497143	82.467172	-461.127851	-15.261237	81.020476	-62.558752	
